<svg id="Layer_1" data-name="Layer 1" xmlns="http://www.w3.org/2000/svg" viewBox="0 0 629.44 629.44"><defs><style>.cls-1{fill:#f07f1b}.cls-2{fill:#fff}</style></defs><title>Orange PxPx Logo - Rotated</title><path class="cls-1" d="M475.67 590.94c150.5-86.89 202.07-279.34 115.18-429.84S311.5-41 161 45.92-41.07 325.26 45.82 475.77s279.35 202.07 429.85 115.17" transform="translate(-3.61 -3.71)"/><path class="cls-2" d="M183.94 449.19c-10.16 5.86-30.27-2.06-45.46-28.37-13.94-24.14-11.56-46.16.43-53.08 10.82-6.25 28.45.45 44.12 27.58s12.56 47.13.91 53.86m9.12 71.54c10.16-5.86 14.55-14.4 6.4-9.69-3.83 2.21-7.56.37-10.7-4.7l-38.54-66.76c14.57 16 29.19 17.11 44.34 8.36 23.14-13.36 28.63-43.84 14.41-68.48-14.34-24.78-41.97-33.03-64.97-19.76-14.45 8.31-20.27 23.31-15.8 41.77l-1.25-2.17c-8.79-14.45-21.3-17.67-32.62-11.13-13.49 7.79-17.14 21.44-14 26.93a2.22 2.22 0 0 0 3.15.84c2.83-1.63-4.94-12 1.88-16 3.66-2.12 7.13-.34 10.21 5 4.42 7.66 56.83 98.83 61.16 106.32 8.55 14.82 23.82 16.66 36.31 9.45m40.62-98L275 398.85c-.12-.59-.74-.91-.7-1.59-9.5 3.93-16.26.29-23.29-3.43l5.14-34.93 33.93 15.71c5.49 2.6 9.17 7.8-1.37 14.55a2 2 0 0 1 .77 1.33l53.94-31.14a1.7 1.7 0 0 1-.77-1.33c-12.83 5.85-23.82.65-30.82-2.63L272 337.11l4.59-29.73C278 297.9 281.83 285 293 278.14l-.86-1.5-41 23.65c.12.59.74.9.7 1.59 9.76-3.86 16.14-.89 23.07 2.66l-5.08 31.57-24.9-11.6c-9.75-4.58-14.61-9.54-4.44-16.53l-.67-1.16L185.88 338l.94 1.23c11.72-7 20.83-3.15 30.93 1.68L254.26 358l-5.08 33.12c-1.25 9.38-5.14 23.39-16.27 30.26zm169.55-100.1c-10.16 5.86-30.27-2.06-45.46-28.36-13.94-24.14-11.55-46.16.43-53.08 10.82-6.25 28.45.45 44.12 27.58s12.56 47.13.91 53.86m9.12 71.54c10.16-5.86 14.55-14.4 6.4-9.69-3.83 2.21-7.56.37-10.7-4.7L369.47 313c14.57 16 29.19 17.11 44.34 8.36 23.19-13.36 28.64-43.84 14.41-68.48-14.32-24.81-41.95-33.05-64.92-19.79-14.48 8.36-20.31 23.27-15.84 41.77l-1.25-2.17c-8.79-14.45-21.3-17.67-32.62-11.13-13.49 7.79-17.14 21.44-14 26.93a2.22 2.22 0 0 0 3.15.84c2.83-1.63-4.94-12 1.88-16 3.66-2.12 7.13-.34 10.2 5 4.45 7.67 56.87 98.87 61.18 106.36 8.55 14.82 23.82 16.66 36.31 9.45m40.62-98l41.29-23.84c-.12-.59-.74-.9-.7-1.59-9.5 3.93-16.26.29-23.29-3.43l5.14-34.93L509.32 248c5.5 2.6 9.17 7.8-1.36 14.55a2 2 0 0 1 .77 1.33l53.94-31.14a1.72 1.72 0 0 1-.77-1.33c-12.82 5.85-23.82.65-30.82-2.63l-39.86-18.28 4.59-29.73c1.41-9.47 5.29-22.37 16.42-29.23l-.86-1.5-41 23.64c.12.59.74.9.7 1.59 9.76-3.86 16.14-.88 23.07 2.66l-5.08 31.57-24.9-11.6c-9.75-4.58-14.61-9.54-4.44-16.53l-.67-1.16-53.94 31.14.94 1.23c11.72-7 20.83-3.15 30.93 1.68l36.51 17.1-5.08 33.12c-1.25 9.38-5.14 23.39-16.27 30.26z" transform="translate(-3.61 -3.71)"/></svg>